<svg xmlns="http://www.w3.org/2000/svg" viewBox="0 0 320 320">
  <defs>
    <radialGradient id="glow" cx="50%" cy="50%" r="50%"><stop offset="0" stop-color="#FFE6A3" stop-opacity="0.9"/><stop offset="1" stop-color="#FFE6A3" stop-opacity="0"/></radialGradient>
    <linearGradient id="quilt" x1="0" y1="0" x2="1" y2="1"><stop offset="0" stop-color="#F3C6C6"/><stop offset="1" stop-color="#E8A9B4"/></linearGradient>
  </defs>
  <circle cx="248" cy="70" r="34" fill="#F6E7B8"/>
  <circle cx="262" cy="60" r="30" fill="#2A2650"/>
  <circle cx="232" cy="196" r="58" fill="url(#glow)"/>
  <!-- 이불 몸 -->
  <path d="M70 300 C 62 220, 92 176, 160 172 C 228 176, 258 220, 250 300 Z" fill="url(#quilt)"/>
  <path d="M96 236 L 224 236 M 86 268 L 236 268 M 140 182 L 128 300 M 186 182 L 196 300" stroke="#D88F9E" stroke-width="3" stroke-dasharray="6 6" fill="none"/>
  <!-- 얼굴 -->
  <circle cx="160" cy="128" r="56" fill="#FBE3CF"/>
  <path d="M104 124 C 104 76, 216 76, 216 124 C 204 100, 176 92, 160 104 C 144 92, 116 100, 104 124 Z" fill="#1E1B2E"/>
  <circle cx="160" cy="70" r="13" fill="#1E1B2E"/>
  <rect x="150" y="80" width="20" height="5" rx="2" fill="#C9963B"/>
  <path d="M132 132 q 10 8 20 0 M 168 132 q 10 8 20 0" stroke="#1E1B2E" stroke-width="4" stroke-linecap="round" fill="none"/>
  <circle cx="128" cy="148" r="8" fill="#F4A9A0" opacity="0.7"/>
  <circle cx="192" cy="148" r="8" fill="#F4A9A0" opacity="0.7"/>
  <path d="M152 156 q 8 6 16 0" stroke="#B4574F" stroke-width="3" stroke-linecap="round" fill="none"/>
  <!-- 등불 -->
  <line x1="232" y1="150" x2="232" y2="168" stroke="#5B4A2E" stroke-width="3"/>
  <rect x="214" y="168" width="36" height="44" rx="12" fill="#F7D27A" stroke="#C9963B" stroke-width="3"/>
  <path d="M220 182 h24 M220 196 h24" stroke="#E0A93E" stroke-width="2"/>
  <circle cx="220" cy="230" r="13" fill="#FBE3CF"/>
  <!-- 별 -->
  <path d="M60 60 l4 10 10 4 -10 4 -4 10 -4 -10 -10 -4 10 -4z M 96 30 l2 6 6 2 -6 2 -2 6 -2 -6 -6 -2 6 -2z" fill="#F6E7B8"/>
</svg>
